<svg width="16" height="13" viewBox="0 0 16 13" fill="none" xmlns="http://www.w3.org/2000/svg">
<path d="M10.7928 11.2678L9.17826 9.65322C8.81058 9.78438 8.41454 9.8558 8.00182 9.8558C6.06838 9.8558 4.50102 8.28844 4.50102 6.355C4.50102 5.94228 4.57244 5.54624 4.7036 5.17857L2.64172 3.11668C0.93893 4.63363 0 6.355 0 6.355C0 6.355 3.00068 11.8563 8.00182 11.8563C9.01744 11.8563 9.95056 11.6294 10.7928 11.2678Z" fill="#333D4B"/>
<path d="M5.21086 1.44222C6.05309 1.08062 6.98621 0.853748 8.00182 0.853748C13.003 0.853748 16.0036 6.355 16.0036 6.355C16.0036 6.355 15.0647 8.07636 13.3619 9.5933L11.3 7.53141C11.4312 7.16374 11.5026 6.76771 11.5026 6.355C11.5026 4.42156 9.93526 2.8542 8.00182 2.8542C7.58911 2.8542 7.19308 2.92562 6.82541 3.05677L5.21086 1.44222Z" fill="#333D4B"/>
<path d="M5.52611 6.00107C5.50972 6.11669 5.50125 6.23486 5.50125 6.355C5.50125 7.73603 6.62079 8.85557 8.00182 8.85557C8.12196 8.85557 8.24013 8.8471 8.35575 8.83072L5.52611 6.00107Z" fill="#333D4B"/>
<path d="M10.4775 6.7089L7.64792 3.87928C7.76353 3.8629 7.88169 3.85443 8.00182 3.85443C9.38285 3.85443 10.5024 4.97397 10.5024 6.355C10.5024 6.47513 10.4939 6.59329 10.4775 6.7089Z" fill="#333D4B"/>
<path d="M13.6496 12.71L1.64682 0.707268L2.35409 0L14.3568 12.0027L13.6496 12.71Z" fill="#333D4B"/>
</svg>
