<?xml version="1.0" encoding="UTF-8"?>
<svg id="_레이어_2" data-name="레이어 2" xmlns="http://www.w3.org/2000/svg" viewBox="0 0 682.29 113.42">
  <defs>
    <style>
      .cls-1 {
        fill: none;
        stroke: #314a95;
        stroke-miterlimit: 10;
        stroke-width: 12px;
      }

      .cls-2 {
        fill: #314a95;
      }

      .cls-3 {
        fill: #555;
      }
    </style>
  </defs>
  <g id="Layer_1" data-name="Layer 1">
    <g>
      <g>
        <path class="cls-2" d="M320.13,52.18v8.51h-56.16v-8.51h10.76v-19.01h10.49v19.01h4.75v-19.01h10.49v19.01h19.67ZM303.04,44.13c1.85-10.62,2.05-18.81,2.11-25.41h-35.9v-8.38h46.59v5.61c0,7.33,0,16.17-2.11,29.24l-10.69-1.06Z"/>
        <path class="cls-2" d="M357.29,41.16c-6.53-2.11-10.82-6.14-13.53-11.09-2.64,5.74-7.26,10.36-14.32,12.6l-5.41-8.45c9.64-3.23,13.33-10.1,13.99-16.89h-11.22v-8.38h33.39v8.38h-11.02c.66,6.2,4.22,12.54,13.33,15.51l-5.21,8.31ZM377.29,55.61c0,7.66-8.32,12.14-21.58,12.14s-21.51-4.49-21.51-12.14,8.32-12.21,21.51-12.21,21.58,4.55,21.58,12.21ZM366.6,55.61c0-2.97-3.5-4.16-10.89-4.16s-10.82,1.19-10.82,4.16,3.5,4.09,10.82,4.09,10.89-1.19,10.89-4.09ZM366.33,19.97V5.65h10.69v36.69h-10.69v-13.86h-7.79v-8.51h7.79Z"/>
        <path class="cls-2" d="M422.63,41.55c-12.74,2.44-26.86,2.71-37.42,2.77l-.92-8.32c3.1,0,6.6,0,10.3-.07v-11.22h10.49v10.89c5.74-.33,11.55-.79,16.89-1.52l.66,7.46ZM408.44,30.99c.86-5.02,1.12-9.11,1.19-12.6h-21.78v-8.38h32.34v4.16c0,4.49,0,10.56-1.39,18.08l-10.36-1.25ZM403.76,58.25h33.72v8.38h-44.41v-18.94h10.69v10.56ZM442.16,23.8v8.65h-6.6v19.34h-10.69V5.59h10.69v18.21h6.6Z"/>
        <path class="cls-2" d="M460.25,44.92c8.84-.13,16.04-.59,23.76-1.98l1.06,8.58c-9.37,1.72-18.41,2.05-30.03,2.05h-5.67v-26.4h18.61v-8.25h-18.68v-8.38h29.57v24.95h-18.61v9.44ZM498.13,5.52v62.23h-10.69V5.52h10.69Z"/>
        <path class="cls-2" d="M532.06,17.93c0,11.62,3.5,22.9,14.85,27.65l-6.14,8.58c-6.86-3.04-11.28-8.38-13.99-15.18-2.64,7.46-7.26,13.53-14.65,16.83l-6.27-8.84c11.61-4.82,15.44-16.83,15.44-29.04v-7.79h10.76v7.79ZM558.66,5.52v62.23h-10.69V5.52h10.69Z"/>
        <path class="cls-2" d="M623.67,51.85v8.58h-56.03v-8.58h56.03ZM617.73,42.61c-11.29-2.05-18.54-7.72-22.44-14.92-3.96,7.19-11.15,12.87-22.37,14.92l-4.42-8.84c15.58-2.64,21.12-12.6,21.12-20.59v-4.36h11.42v4.36c0,8.18,5.35,17.95,21.12,20.59l-4.42,8.84Z"/>
        <path class="cls-2" d="M656.47,39.51c-6.93,1.19-12.87,1.25-21.58,1.25h-4.42V9.08h23.3v8.32h-13.07v3.5h11.02v7.99h-11.02v3.56c5.41-.07,9.9-.33,14.92-1.12l.86,8.18ZM638.72,44.59h42.7v22.31h-42.7v-22.31ZM649.21,58.64h21.78v-5.81h-21.78v5.81ZM659.11,28.55h-4.88v-8.38h4.88V6.51h9.9v35.5h-9.9v-13.46ZM681.42,5.65v36.76h-10.1V5.65h10.1Z"/>
      </g>
      <g>
        <path class="cls-3" d="M270.63,96.8c0-5.33,4.06-9.26,9.54-9.26,2.65,0,5.04.88,6.66,2.65l-1.22,1.22c-1.48-1.51-3.3-2.16-5.38-2.16-4.39,0-7.7,3.22-7.7,7.54s3.3,7.54,7.7,7.54c2.08,0,3.9-.65,5.38-2.18l1.22,1.22c-1.61,1.77-4,2.68-6.68,2.68-5.46,0-9.52-3.93-9.52-9.26Z"/>
        <path class="cls-3" d="M300.14,97.42v8.48h-1.77v-2.13c-.83,1.4-2.44,2.26-4.71,2.26-3.09,0-4.99-1.61-4.99-3.98,0-2.11,1.35-3.87,5.28-3.87h4.34v-.83c0-2.34-1.33-3.61-3.87-3.61-1.77,0-3.43.62-4.55,1.61l-.83-1.38c1.38-1.17,3.41-1.85,5.56-1.85,3.54,0,5.54,1.77,5.54,5.3ZM298.29,101.79v-2.24h-4.29c-2.65,0-3.51,1.04-3.51,2.44,0,1.59,1.27,2.57,3.46,2.57s3.61-.99,4.34-2.78Z"/>
        <path class="cls-3" d="M304.64,86.6h1.85v19.29h-1.85v-19.29Z"/>
        <path class="cls-3" d="M310.7,87.9c0-.7.6-1.3,1.35-1.3s1.35.57,1.35,1.27c0,.75-.57,1.35-1.35,1.35s-1.35-.6-1.35-1.33ZM311.11,92.22h1.85v13.68h-1.85v-13.68Z"/>
        <path class="cls-3" d="M331.45,99.06c0,4.13-2.91,6.97-6.81,6.97-2.26,0-4.16-.99-5.28-2.83v2.7h-1.77v-19.29h1.85v8.22c1.14-1.77,3.02-2.7,5.2-2.7,3.9,0,6.81,2.81,6.81,6.94ZM329.6,99.06c0-3.2-2.21-5.33-5.1-5.33s-5.1,2.13-5.1,5.33,2.18,5.33,5.1,5.33,5.1-2.13,5.1-5.33Z"/>
        <path class="cls-3" d="M341.59,92.12v1.79c-.16,0-.31-.03-.44-.03-2.86,0-4.6,1.82-4.6,5.04v6.97h-1.85v-13.68h1.77v2.68c.86-1.82,2.6-2.78,5.12-2.78Z"/>
        <path class="cls-3" d="M354.69,97.42v8.48h-1.77v-2.13c-.83,1.4-2.44,2.26-4.71,2.26-3.09,0-4.99-1.61-4.99-3.98,0-2.11,1.35-3.87,5.28-3.87h4.34v-.83c0-2.34-1.33-3.61-3.87-3.61-1.77,0-3.43.62-4.55,1.61l-.83-1.38c1.38-1.17,3.41-1.85,5.56-1.85,3.54,0,5.54,1.77,5.54,5.3ZM352.85,101.79v-2.24h-4.29c-2.65,0-3.51,1.04-3.51,2.44,0,1.59,1.27,2.57,3.46,2.57s3.61-.99,4.34-2.78Z"/>
        <path class="cls-3" d="M366.39,105.06c-.73.65-1.82.96-2.89.96-2.57,0-4-1.46-4-3.98v-8.27h-2.44v-1.56h2.44v-2.99h1.85v2.99h4.16v1.56h-4.16v8.16c0,1.61.83,2.5,2.37,2.5.75,0,1.51-.23,2.03-.7l.65,1.33Z"/>
        <path class="cls-3" d="M368.81,87.9c0-.7.6-1.3,1.35-1.3s1.35.57,1.35,1.27c0,.75-.57,1.35-1.35,1.35s-1.35-.6-1.35-1.33ZM369.23,92.22h1.85v13.68h-1.85v-13.68Z"/>
        <path class="cls-3" d="M374.32,99.06c0-4.06,2.96-6.94,6.97-6.94s6.94,2.89,6.94,6.94-2.94,6.97-6.94,6.97-6.97-2.91-6.97-6.97ZM386.36,99.06c0-3.2-2.16-5.33-5.07-5.33s-5.1,2.13-5.1,5.33,2.18,5.33,5.1,5.33,5.07-2.13,5.07-5.33Z"/>
        <path class="cls-3" d="M404.07,97.97v7.93h-1.85v-7.75c0-2.89-1.51-4.37-4.11-4.37-2.94,0-4.78,1.82-4.78,4.94v7.18h-1.85v-13.68h1.77v2.52c.99-1.66,2.83-2.63,5.2-2.63,3.33,0,5.62,1.92,5.62,5.85Z"/>
        <path class="cls-3" d="M434.15,87.7v18.2h-1.85v-14.56l-7.15,12.25h-.91l-7.15-12.17v14.48h-1.85v-18.2h1.59l7.9,13.49,7.83-13.49h1.59Z"/>
        <path class="cls-3" d="M449.5,97.42v8.48h-1.77v-2.13c-.83,1.4-2.44,2.26-4.71,2.26-3.09,0-4.99-1.61-4.99-3.98,0-2.11,1.35-3.87,5.28-3.87h4.34v-.83c0-2.34-1.33-3.61-3.87-3.61-1.77,0-3.43.62-4.55,1.61l-.83-1.38c1.38-1.17,3.41-1.85,5.56-1.85,3.54,0,5.54,1.77,5.54,5.3ZM447.65,101.79v-2.24h-4.29c-2.65,0-3.51,1.04-3.51,2.44,0,1.59,1.27,2.57,3.46,2.57s3.61-.99,4.34-2.78Z"/>
        <path class="cls-3" d="M466.58,97.97v7.93h-1.85v-7.75c0-2.89-1.51-4.37-4.11-4.37-2.94,0-4.78,1.82-4.78,4.94v7.18h-1.85v-13.68h1.77v2.52c.99-1.66,2.83-2.63,5.2-2.63,3.33,0,5.62,1.92,5.62,5.85Z"/>
        <path class="cls-3" d="M481.4,97.42v8.48h-1.77v-2.13c-.83,1.4-2.44,2.26-4.71,2.26-3.09,0-4.99-1.61-4.99-3.98,0-2.11,1.35-3.87,5.28-3.87h4.34v-.83c0-2.34-1.33-3.61-3.88-3.61-1.77,0-3.43.62-4.55,1.61l-.83-1.38c1.38-1.17,3.41-1.85,5.56-1.85,3.54,0,5.54,1.77,5.54,5.3ZM479.56,101.79v-2.24h-4.29c-2.65,0-3.51,1.04-3.51,2.44,0,1.59,1.27,2.57,3.46,2.57s3.61-.99,4.34-2.78Z"/>
        <path class="cls-3" d="M498.61,92.22v12.01c0,4.71-2.31,6.84-6.84,6.84-2.5,0-4.94-.75-6.37-2.11l.94-1.4c1.3,1.17,3.28,1.87,5.38,1.87,3.46,0,5.04-1.59,5.04-4.97v-1.74c-1.14,1.74-3.09,2.65-5.33,2.65-3.9,0-6.86-2.73-6.86-6.66s2.96-6.6,6.86-6.6c2.29,0,4.26.94,5.41,2.73v-2.63h1.77ZM496.82,98.72c0-2.96-2.18-4.99-5.2-4.99s-5.17,2.03-5.17,4.99,2.16,5.02,5.17,5.02,5.2-2.05,5.2-5.02Z"/>
        <path class="cls-3" d="M515.18,99.63h-11.44c.21,2.86,2.39,4.76,5.38,4.76,1.66,0,3.15-.6,4.19-1.79l1.04,1.2c-1.22,1.46-3.12,2.24-5.28,2.24-4.26,0-7.18-2.91-7.18-6.97s2.83-6.94,6.68-6.94,6.63,2.83,6.63,6.94c0,.16-.03.36-.03.57ZM503.74,98.25h9.7c-.23-2.68-2.18-4.55-4.86-4.55s-4.6,1.87-4.84,4.55Z"/>
        <path class="cls-3" d="M541.02,97.97v7.93h-1.85v-7.75c0-2.89-1.46-4.37-3.93-4.37-2.81,0-4.58,1.82-4.58,4.94v7.18h-1.85v-7.75c0-2.89-1.46-4.37-3.95-4.37-2.78,0-4.58,1.82-4.58,4.94v7.18h-1.85v-13.68h1.77v2.5c.96-1.64,2.73-2.6,5.02-2.6s4.03.96,4.86,2.89c.99-1.77,2.94-2.89,5.41-2.89,3.33,0,5.51,1.92,5.51,5.85Z"/>
        <path class="cls-3" d="M557.48,99.63h-11.44c.21,2.86,2.39,4.76,5.38,4.76,1.66,0,3.15-.6,4.19-1.79l1.04,1.2c-1.22,1.46-3.12,2.24-5.28,2.24-4.26,0-7.18-2.91-7.18-6.97s2.83-6.94,6.68-6.94,6.63,2.83,6.63,6.94c0,.16-.03.36-.03.57ZM546.04,98.25h9.7c-.23-2.68-2.18-4.55-4.86-4.55s-4.6,1.87-4.84,4.55Z"/>
        <path class="cls-3" d="M573.34,97.97v7.93h-1.85v-7.75c0-2.89-1.51-4.37-4.11-4.37-2.94,0-4.78,1.82-4.78,4.94v7.18h-1.85v-13.68h1.77v2.52c.99-1.66,2.83-2.63,5.2-2.63,3.33,0,5.62,1.92,5.62,5.85Z"/>
        <path class="cls-3" d="M585.04,105.06c-.73.65-1.82.96-2.89.96-2.57,0-4-1.46-4-3.98v-8.27h-2.44v-1.56h2.44v-2.99h1.85v2.99h4.16v1.56h-4.16v8.16c0,1.61.83,2.5,2.37,2.5.75,0,1.51-.23,2.03-.7l.65,1.33Z"/>
        <path class="cls-3" d="M592.82,103.69l.75-1.48c1.3,1.27,3.61,2.21,6.01,2.21,3.41,0,4.89-1.43,4.89-3.22,0-4.99-11.21-1.92-11.21-8.66,0-2.68,2.08-4.99,6.71-4.99,2.05,0,4.19.6,5.64,1.61l-.65,1.53c-1.56-1.01-3.38-1.51-4.99-1.51-3.33,0-4.81,1.48-4.81,3.3,0,4.99,11.21,1.98,11.21,8.61,0,2.68-2.13,4.97-6.79,4.97-2.73,0-5.41-.96-6.76-2.37Z"/>
        <path class="cls-3" d="M620.88,92.22l-6.84,15.31c-1.14,2.68-2.6,3.54-4.55,3.54-1.27,0-2.5-.42-3.33-1.25l.86-1.38c.68.68,1.51,1.04,2.5,1.04,1.22,0,2.05-.57,2.83-2.29l.6-1.33-6.11-13.65h1.92l5.15,11.62,5.15-11.62h1.82Z"/>
        <path class="cls-3" d="M620.9,104.34l.83-1.46c1.09.86,2.94,1.53,4.86,1.53,2.6,0,3.67-.88,3.67-2.24,0-3.56-8.87-.75-8.87-6.16,0-2.24,1.92-3.9,5.41-3.9,1.77,0,3.69.49,4.84,1.27l-.81,1.48c-1.2-.83-2.63-1.17-4.03-1.17-2.47,0-3.56.96-3.56,2.26,0,3.69,8.87.91,8.87,6.16,0,2.37-2.08,3.9-5.64,3.9-2.26,0-4.45-.73-5.56-1.69Z"/>
        <path class="cls-3" d="M642.2,105.06c-.73.65-1.82.96-2.89.96-2.57,0-4-1.46-4-3.98v-8.27h-2.44v-1.56h2.44v-2.99h1.85v2.99h4.16v1.56h-4.16v8.16c0,1.61.83,2.5,2.37,2.5.75,0,1.51-.23,2.03-.7l.65,1.33Z"/>
        <path class="cls-3" d="M656.45,99.63h-11.44c.21,2.86,2.39,4.76,5.38,4.76,1.66,0,3.15-.6,4.19-1.79l1.04,1.2c-1.22,1.46-3.12,2.24-5.28,2.24-4.26,0-7.18-2.91-7.18-6.97s2.83-6.94,6.68-6.94,6.63,2.83,6.63,6.94c0,.16-.03.36-.03.57ZM645.01,98.25h9.7c-.23-2.68-2.18-4.55-4.86-4.55s-4.6,1.87-4.84,4.55Z"/>
        <path class="cls-3" d="M682.29,97.97v7.93h-1.85v-7.75c0-2.89-1.46-4.37-3.93-4.37-2.81,0-4.58,1.82-4.58,4.94v7.18h-1.85v-7.75c0-2.89-1.46-4.37-3.95-4.37-2.78,0-4.58,1.82-4.58,4.94v7.18h-1.85v-13.68h1.77v2.5c.96-1.64,2.73-2.6,5.02-2.6s4.03.96,4.86,2.89c.99-1.77,2.94-2.89,5.41-2.89,3.33,0,5.51,1.92,5.51,5.85Z"/>
      </g>
      <g>
        <g>
          <g>
            <path class="cls-1" d="M109.42,34.76c6.12-17.77,23.55-29.99,43.2-28.67,14.77.99,29.27,10.06,37.3,24.82,3.35-.72,6.86-1,10.45-.76,20.72,1.39,36.38,19.31,34.99,40.03-1.07,15.94-11.94,28.88-26.33,33.37"/>
            <path class="cls-1" d="M109.42,34.76c-.36,1.04-.68,2.1-.96,3.17"/>
            <path class="cls-1" d="M206.91,104.15c.72-.18,1.43-.38,2.13-.6"/>
          </g>
          <g>
            <path class="cls-2" d="M39.99,92.15c-2.23,2.24-5.22,3.36-8.98,3.36s-6.76-1.27-9.17-3.82c-2.42-2.55-3.62-5.77-3.62-9.67s1.23-7.38,3.69-10c2.46-2.62,5.58-3.93,9.37-3.93,5.87,0,9.87,3.19,12.02,9.55l18.05-.97,1.03-.07c-1.69-7.34-4.57-13.06-8.65-17.17-5.88-5.94-13.22-8.91-22.01-8.91s-16.46,3.03-22.56,9.08c-6.1,6.06-9.15,13.53-9.15,22.41s2.99,16.21,8.98,22.17c5.98,5.96,13.42,8.93,22.3,8.93s15.82-2.62,21.25-7.86c4.52-4.36,7.55-10.25,9.16-17.63l-18.57-.89c-.68,2.19-1.72,4-3.13,5.41Z"/>
            <path class="cls-2" d="M114.86,50.52c-3.38,0-6.22.65-8.52,1.94-2.3,1.3-4.46,3.46-6.46,6.49-3.29-5.62-7.99-8.43-14.11-8.43-5.15,0-9.35,1.69-12.58,5.07-3.23,3.38-4.85,7.73-4.85,13.06v42.98h17.73v-38.79c0-3.17.87-4.76,2.62-4.76.93,0,1.56.32,1.88.96s.48,1.91.48,3.8v38.79h17.73v-39.09c0-2.97.87-4.46,2.62-4.46.93,0,1.55.31,1.86.94.31.63.46,1.9.46,3.82v38.79h17.73v-41.45c0-6.35-1.43-11.21-4.28-14.59-2.85-3.38-6.96-5.07-12.32-5.07Z"/>
          </g>
        </g>
        <path class="cls-2" d="M136.21,94.33l17.86-3.21c1.5,5.05,5.35,7.57,11.57,7.57,4.83,0,7.25-1.29,7.25-3.86,0-1.35-.56-2.39-1.67-3.14-1.12-.75-3.11-1.41-5.99-1.99-10.99-2.11-18.04-4.86-21.16-8.26s-4.68-7.39-4.68-11.98c0-5.91,2.24-10.82,6.73-14.74,4.48-3.92,10.93-5.88,19.35-5.88,12.76,0,21.19,5.13,25.29,15.38l-15.93,4.82c-1.65-4.19-5-6.29-10.05-6.29-4.19,0-6.29,1.3-6.29,3.9,0,1.16.47,2.07,1.42,2.71.95.64,2.79,1.25,5.51,1.83,7.5,1.59,12.82,2.99,15.98,4.21,3.15,1.22,5.78,3.31,7.89,6.26,2.11,2.96,3.17,6.44,3.17,10.45,0,6.34-2.57,11.48-7.71,15.41-5.14,3.94-11.89,5.9-20.24,5.9-15.27,0-24.7-6.36-28.28-19.1Z"/>
      </g>
    </g>
  </g>
</svg>