<?xml version="1.0" encoding="UTF-8"?>
<svg id="Layer_1" data-name="Layer 1" xmlns="http://www.w3.org/2000/svg" viewBox="0 0 686.7 113.42">
  <defs>
    <style>
      .cls-1 {
        fill: none;
        stroke: #314a95;
        stroke-miterlimit: 10;
        stroke-width: 12px;
      }

      .cls-2, .cls-3 {
        fill: #314a95;
      }

      .cls-3 {
        font-family: NotoSansKR-Black-KSCpc-EUC-H, 'Noto Sans KR';
        font-size: 66px;
        font-weight: 800;
      }

      .cls-4 {
        fill: #555;
        font-family: Montserrat-Regular, Montserrat;
        font-size: 26px;
      }

      .cls-5 {
        letter-spacing: -.02em;
      }

      .cls-6 {
        letter-spacing: -.02em;
      }

      .cls-7 {
        letter-spacing: -.02em;
      }

      .cls-8 {
        letter-spacing: -.02em;
      }

      .cls-9 {
        letter-spacing: -.03em;
      }

      .cls-10 {
        letter-spacing: -.04em;
      }

      .cls-11 {
        letter-spacing: -.03em;
      }

      .cls-12 {
        letter-spacing: -.03em;
      }

      .cls-13 {
        letter-spacing: -.03em;
      }
    </style>
  </defs>
  <text class="cls-3" transform="translate(261.66 61.28)"><tspan x="0" y="0">교정관리시스템</tspan></text>
  <text class="cls-4" transform="translate(269.28 103.9)"><tspan class="cls-13" x="0" y="0">C</tspan><tspan class="cls-6" x="17.97" y="0">alib</tspan><tspan class="cls-12" x="62.85" y="0">r</tspan><tspan class="cls-6" x="72.52" y="0">ation Man</tspan><tspan class="cls-5" x="199.23" y="0">a</tspan><tspan class="cls-7" x="214.1" y="0">ge</tspan><tspan class="cls-8" x="246.6" y="0">m</tspan><tspan class="cls-6" x="273.72" y="0">ent </tspan><tspan class="cls-9" x="322.32" y="0">S</tspan><tspan class="cls-11" x="337.53" y="0">y</tspan><tspan class="cls-7" x="350.95" y="0">s</tspan><tspan class="cls-10" x="363.15" y="0">t</tspan><tspan class="cls-7" x="372.69" y="0">em</tspan></text>
  <g>
    <g>
      <g>
        <path class="cls-1" d="M109.42,34.76c6.12-17.77,23.55-29.99,43.2-28.67,14.77.99,29.27,10.06,37.3,24.82,3.35-.72,6.86-1,10.45-.76,20.72,1.39,36.38,19.31,34.99,40.03-1.07,15.94-11.94,28.88-26.33,33.37"/>
        <path class="cls-1" d="M109.42,34.76c-.36,1.04-.68,2.1-.96,3.17"/>
        <path class="cls-1" d="M206.91,104.15c.72-.18,1.43-.38,2.13-.6"/>
      </g>
      <g>
        <path class="cls-2" d="M39.99,92.15c-2.23,2.24-5.22,3.36-8.98,3.36s-6.76-1.27-9.17-3.82c-2.42-2.55-3.62-5.77-3.62-9.67s1.23-7.38,3.69-10c2.46-2.62,5.58-3.93,9.37-3.93,5.87,0,9.87,3.19,12.02,9.55l18.05-.97,1.03-.07c-1.69-7.34-4.57-13.06-8.65-17.17-5.88-5.94-13.22-8.91-22.01-8.91s-16.46,3.03-22.56,9.08c-6.1,6.06-9.15,13.53-9.15,22.41s2.99,16.21,8.98,22.17c5.98,5.96,13.42,8.93,22.3,8.93s15.82-2.62,21.25-7.86c4.52-4.36,7.55-10.25,9.16-17.63l-18.57-.89c-.68,2.19-1.72,4-3.13,5.41Z"/>
        <path class="cls-2" d="M114.86,50.52c-3.38,0-6.22.65-8.52,1.94-2.3,1.3-4.46,3.46-6.46,6.49-3.29-5.62-7.99-8.43-14.11-8.43-5.15,0-9.35,1.69-12.58,5.07-3.23,3.38-4.85,7.73-4.85,13.06v42.98h17.73v-38.79c0-3.17.87-4.76,2.62-4.76.93,0,1.56.32,1.88.96s.48,1.91.48,3.8v38.79h17.73v-39.09c0-2.97.87-4.46,2.62-4.46.93,0,1.55.31,1.86.94.31.63.46,1.9.46,3.82v38.79h17.73v-41.45c0-6.35-1.43-11.21-4.28-14.59-2.85-3.38-6.96-5.07-12.32-5.07Z"/>
      </g>
    </g>
    <path class="cls-2" d="M136.21,94.33l17.86-3.21c1.5,5.05,5.35,7.57,11.57,7.57,4.83,0,7.25-1.29,7.25-3.86,0-1.35-.56-2.39-1.67-3.14-1.12-.75-3.11-1.41-5.99-1.99-10.99-2.11-18.04-4.86-21.16-8.26s-4.68-7.39-4.68-11.98c0-5.91,2.24-10.82,6.73-14.74,4.48-3.92,10.93-5.88,19.35-5.88,12.76,0,21.19,5.13,25.29,15.38l-15.93,4.82c-1.65-4.19-5-6.29-10.05-6.29-4.19,0-6.29,1.3-6.29,3.9,0,1.16.47,2.07,1.42,2.71.95.64,2.79,1.25,5.51,1.83,7.5,1.59,12.82,2.99,15.98,4.21,3.15,1.22,5.78,3.31,7.89,6.26,2.11,2.96,3.17,6.44,3.17,10.45,0,6.34-2.57,11.48-7.71,15.41-5.14,3.94-11.89,5.9-20.24,5.9-15.27,0-24.7-6.36-28.28-19.1Z"/>
  </g>
</svg>